<svg width="315" height="473.00000000000006" xmlns="http://www.w3.org/2000/svg">
 <defs>
  <linearGradient id="imagebot_52" y2="0.8387" x2="0.501" y1="0.53308" x1="0.501">
   <stop id="imagebot_69" offset="0" stop-color="#fbb045"/>
   <stop id="imagebot_68" offset="1" stop-color="#c77829"/>
  </linearGradient>
  <linearGradient id="imagebot_50" y2="0.8387" x2="0.501" y1="0.53308" x1="0.501">
   <stop id="imagebot_67" offset="0" stop-color="#fbb045"/>
   <stop id="imagebot_66" offset="1" stop-color="#c77829"/>
  </linearGradient>
  <linearGradient id="imagebot_48" y2="0.83877" x2="0.501" y1="0.53296" x1="0.501">
   <stop id="imagebot_65" offset="0" stop-color="#fbb045"/>
   <stop id="imagebot_64" offset="1" stop-color="#c77829"/>
  </linearGradient>
  <linearGradient id="imagebot_45" y2="0.83893" x2="0.50071" y1="0.53295" x1="0.50071">
   <stop id="imagebot_63" offset="0" stop-color="#fbb045"/>
   <stop id="imagebot_62" offset="1" stop-color="#c77829"/>
  </linearGradient>
  <linearGradient id="imagebot_43" y2="0.83893" x2="0.50071" y1="0.53295" x1="0.50071">
   <stop id="imagebot_61" offset="0" stop-color="#fbb045"/>
   <stop id="imagebot_60" offset="1" stop-color="#c77829"/>
  </linearGradient>
  <linearGradient id="imagebot_41" y2="0.83897" x2="0.50071" y1="0.53315" x1="0.50071">
   <stop id="imagebot_59" offset="0" stop-color="#fbb045"/>
   <stop id="imagebot_58" offset="1" stop-color="#c77829"/>
  </linearGradient>
  <linearGradient id="imagebot_15" y2="0.50009" x2="0.66713" y1="0.50009" x1="0.44122">
   <stop id="imagebot_57" offset="0" stop-color="#fbb045"/>
   <stop id="imagebot_56" offset="1" stop-color="#c77829"/>
  </linearGradient>
 </defs>
 <g>
  <title/>
 </g>
 <g id="imagebot_55" display="none">
  <title display="none"/>
 </g>
 <g id="imagebot_17">
  <path id="imagebot_54" d="M519.9,532.2C519.92,592.7 470.87,641.76 410.36,641.76S300.81,592.7 300.83,532.2C300.81,471.69 349.85,422.63 410.36,422.63S519.92,471.69 519.9,532.2z" fill="#cccccc" stroke-linecap="round" stroke-width="3.2874" stroke="#010101" stroke-linejoin="round" transform="translate(-35.8106 -13.0684) matrix(1 0 0 1 -216.73 -178.06)"/>
  <path id="imagebot_53" d="M513.28,494.62C513.35,496.3 513.4,498.01 513.4,499.71C513.4,560.18 464.34,609.24 403.87,609.24C356.61,609.24 316.28,579.24 300.93,537.27C303.59,595.39 351.61,641.74 410.37,641.74C470.84,641.74 519.9,592.68 519.9,532.21C519.9,519.01 517.56,506.34 513.28,494.62z" fill="#010101" fill-opacity="0.3137" transform="translate(-35.8106 -13.0684) matrix(1 0 0 1 -216.73 -178.06)"/>
  <g id="imagebot_30" transform="translate(-35.8106 -13.0684) matrix(1 0 0 1 -216.73 -178.06)">
   <g id="imagebot_46">
    <path id="imagebot_51" d="M480.36,632.67C480.36,645.38 473.98,655.69 466.12,655.69C458.24,655.69 451.86,645.38 451.86,632.67C451.86,619.95 458.24,609.65 466.12,609.65C473.98,609.65 480.36,619.95 480.36,632.67z" fill="url(#imagebot_52)" stroke-linecap="round" stroke-width="2.8687" stroke="#010101" stroke-linejoin="round"/>
    <path id="imagebot_49" d="M445.86,632.67C445.86,645.38 439.48,655.69 431.62,655.69C423.74,655.69 417.36,645.38 417.36,632.67C417.36,619.95 423.74,609.65 431.62,609.65C439.48,609.65 445.86,619.95 445.86,632.67z" fill="url(#imagebot_50)" stroke-linecap="round" stroke-width="2.8687" stroke="#010101" stroke-linejoin="round"/>
    <path id="imagebot_47" d="M462.86,637C462.86,652.11 456.48,664.35 448.62,664.35C440.74,664.35 434.36,652.11 434.36,637S440.74,609.64 448.62,609.64C456.48,609.64 462.86,621.89 462.86,637z" fill="url(#imagebot_48)" stroke-linecap="round" stroke-width="2.8687" stroke="#010101" stroke-linejoin="round"/>
   </g>
   <g id="imagebot_39">
    <path id="imagebot_44" d="M404.36,631.67C404.36,644.38 397.98,654.69 390.12,654.69C382.24,654.69 375.86,644.38 375.86,631.67C375.86,618.95 382.24,608.65 390.12,608.65C397.98,608.65 404.36,618.95 404.36,631.67z" fill="url(#imagebot_45)" stroke-linecap="round" stroke-width="2.8687" stroke="#010101" stroke-linejoin="round"/>
    <path id="imagebot_42" d="M369.86,631.67C369.86,644.38 363.48,654.69 355.62,654.69C347.74,654.69 341.36,644.38 341.36,631.67C341.36,618.95 347.74,608.65 355.62,608.65C363.48,608.65 369.86,618.95 369.86,631.67z" fill="url(#imagebot_43)" stroke-linecap="round" stroke-width="2.8687" stroke="#010101" stroke-linejoin="round"/>
    <path id="imagebot_40" d="M386.86,636C386.86,651.11 380.48,663.35 372.62,663.35C364.74,663.35 358.36,651.11 358.36,636S364.74,608.64 372.62,608.64C380.48,608.64 386.86,620.89 386.86,636z" fill="url(#imagebot_41)" stroke-linecap="round" stroke-width="2.8687" stroke="#010101" stroke-linejoin="round"/>
   </g>
   <path id="imagebot_38" d="M354.62,609.64C348.81,609.64 343.84,615.27 341.62,623.33C360.59,628.4 381.43,631.36 403.33,631.77C403.04,619.48 396.79,609.64 389.12,609.64C385.81,609.64 382.78,611.47 380.36,614.52C377.95,611.47 374.92,609.64 371.62,609.64C368.43,609.64 365.49,611.35 363.12,614.21C360.74,611.35 357.8,609.64 354.62,609.64zM431.62,609.64C423.96,609.64 417.72,619.43 417.4,631.67C439.28,630.97 460.01,627.69 478.83,622.33C476.49,614.81 471.68,609.64 466.12,609.64C462.81,609.64 459.78,611.47 457.36,614.52C454.95,611.47 451.92,609.64 448.62,609.64C445.43,609.64 442.49,611.35 440.12,614.2C437.74,611.35 434.8,609.64 431.62,609.64z" fill="#010101" fill-opacity="0.3137"/>
   <g id="imagebot_31">
    <g id="imagebot_35">
     <path id="imagebot_37" d="M355.06,600.08C343.61,608.41 346.12,626.85 350.21,632.85C354.91,619.74 357.59,614.08 362.13,612.97C364.13,616.16 358.02,631.19 373.95,648.07C373.67,632.86 370.82,618.97 376.52,618.08C379.15,623.37 385.28,631.58 394.48,635.19C390.53,623.86 386.23,612.08 389.78,606.42" fill="#ffffff" stroke-linecap="round" stroke-width="4" stroke="#010101" stroke-linejoin="round"/>
     <ellipse id="imagebot_36" rx="15.2" ry="6.081" transform="matrix(.9783 .2071 -.2071 .9783 133.03 -64.048)" cy="603.23" cx="372.37" fill="#ffffff"/>
    </g>
    <g id="imagebot_32">
     <path id="imagebot_34" d="M430.02,608.34C433.27,614.17 428.6,625.9 424.29,637.2C433.43,633.88 439.75,625.79 442.53,620.55C448.07,621.64 444.73,635.55 443.86,650.89C460.11,634.39 454.72,619.03 456.8,615.88C461.21,617.15 463.6,622.95 467.68,636.33C471.91,630.42 475.1,611.9 464.23,603.12" fill="#ffffff" stroke-linecap="round" stroke-width="4" stroke="#010101" stroke-linejoin="round"/>
     <path id="imagebot_33" d="M432.69,609.1S419.44,599.36 466.44,590.36C471.36,589.41 459.19,606.1 459.19,606.1L432.69,609.1z" fill="#ffffff"/>
    </g>
   </g>
  </g>
  <g id="imagebot_27" transform="translate(-15 0) matrix(1.58972 0 0 2.37194 -572.294 -1076.62)">
   <path id="imagebot_29" d="M488.58,461.56C440.47,478.86 502.75,555.7 450.76,622.75C441.16,635.15 508.63,624.84 532.49,556.17C555.68,489.38 533.62,448.63 488.58,461.56z" fill="#cccccc" stroke-width="5" stroke="#010101"/>
   <path id="imagebot_28" d="M504.34,459.17C503.93,459.17 503.51,459.19 503.09,459.2C519.3,472.27 526.16,502.5 517.87,544.55C506.85,600.44 464.3,624.56 450.15,625.83C454.74,632.36 511.12,617.7 532.5,556.17C552.8,497.74 538.42,459.22 504.34,459.17z" fill="#010101" fill-opacity="0.3137"/>
  </g>
  <g id="imagebot_24" transform="translate(10 0) matrix(1.54761 0 0 2.43447 -402.679 -1105.93)">
   <path id="imagebot_26" d="M332.14,461.56C380.25,478.86 317.98,555.7 369.96,622.75C379.57,635.15 312.09,624.84 288.24,556.17C265.04,489.38 287.1,448.63 332.14,461.56z" fill="#cccccc" stroke-width="5" stroke="#010101"/>
   <path id="imagebot_25" d="M280.47,491.36C277.02,507.87 279.17,530.03 288.25,556.17C312.1,624.85 379.57,635.16 369.97,622.77C365.86,617.47 362.44,612.09 359.65,606.7C340.7,602.16 305.6,582.33 289.75,536.67C283.87,519.75 280.89,504.49 280.47,491.36zM351.75,497.7C350.86,506.24 349.89,515.32 349.47,524.83C350.46,515.04 351.55,505.89 351.75,497.7z" fill="#010101" fill-opacity="0.3137"/>
  </g>
  <path id="imagebot_23" d="M361.22,441.15C346.6,436.12 331.48,449.44 328.59,456.64C343.36,452.87 350.14,451.81 353.96,455.14C352.32,458.82 334.94,462.5 329.56,486.68C343.14,477.26 353.92,466.38 358.26,470.86C355.12,476.36 351.49,486.7 353.93,496.95C361.73,486.65 369.71,475.78 377.03,475.48" fill="#ffffff" stroke-linecap="round" stroke-width="4" stroke="#010101" stroke-linejoin="round" transform="translate(-35.8106 -13.0684) matrix(1 0 0 1 -216.73 -178.06)"/>
  <path id="imagebot_22" d="M459.23,443.24C473.86,438.21 488.97,451.53 491.86,458.74C477.1,454.96 470.32,453.9 466.49,457.23C468.14,460.91 485.51,464.59 490.9,488.77C477.32,479.36 466.53,468.48 462.19,472.95C465.34,478.45 468.97,488.79 466.52,499.04C458.72,488.74 450.75,477.87 443.42,477.57" fill="#ffffff" stroke-linecap="round" stroke-width="4" stroke="#010101" stroke-linejoin="round" transform="translate(-35.8106 -13.0684) matrix(1 0 0 1 -216.73 -178.06)"/>
  <path id="imagebot_21" d="M357.83,447.85504C382.33,406.86053 377.83,308.60349 377.83,308.60349L437.83,305.07731S436.33,404.02661 461.33,445.73501" fill="#ffffff" stroke-linecap="round" stroke-width="4" stroke="#010101" stroke-linejoin="round" transform="translate(-35.8106 -13.0684) matrix(1 0 0 1 -216.73 -175.56)"/>
  <ellipse id="imagebot_20" rx="50.25" ry="22.58292" cy="466.94292" cx="409.94" fill="#ffffff" transform="translate(-35.8106 -13.0684) matrix(1 0 0 1 -215.48 -186.81)"/>
  <path id="imagebot_19" d="M437.82,326.83L420.66,327.77L377.82,330.11S378.06,334.97 378.13,342.68C391.29,350.93 404.55,355.74 413.85,355.74C417.18,355.74 420.95,355.17 425,354.08C431.19,387.42 442.67,434.43 461.04,456.58L460.04,456.93L461.32,456.9C444.11,430.36 439.48,378.74 438.25,349.15C438.12,345.8 438.01,342.71 437.94,339.99C437.89,337.82 437.87,335.89 437.85,334.21C437.83,332.85 437.82,331.83 437.82,330.83C437.81,329.28 437.81,329.09 437.82,328.43L437.82,326.83z" fill="#010101" fill-opacity="0.3137" transform="translate(-35.8106 -13.0684) matrix(1 0 0 1 -216.73 -178.06)"/>
  <path id="imagebot_18" d="M 186.14462776796873 112.03645468964646 C 178.73500785258705 106.68947108889293 169.3335478280383 103.55483774065566 158.2873984462076 103.55483774065566 C 148.23716911896045 103.55483774065566 139.66658939103183 106.00650588317943 132.71223805527146 110.26190995273782 C 124.76197557011062 115.90076092883538 118.37102845207387 124.09051940766525 114.45565098793918 133.8213198179455 C 112.65162118986305 139.24418448369696 111.7126141603237 145.14571164501263 111.7126141603237 151.32743148665858 C 111.7126141603237 177.70042503981662 143.65026070418293 199.1058670327599 158.2873984462076 199.1058670327599 C 173.49363081794198 199.1058670327599 204.8678731440776 177.70042503981662 204.8678731440776 151.32743148665858 C 204.8678731440776 144.95891652479244 203.82642979360514 138.8822778434534 201.84597941359334 133.32514973245213 C 198.31758558524663 124.78515930839251 192.87703522590454 117.459328260581 186.14462776796873 112.03645468964646 z" fill="#ffffff" stroke-linecap="round" stroke-width="4" stroke="#010101" stroke-linejoin="round"/>
  <title/>
 </g>
 <g id="imagebot_1">
  <g id="imagebot_13" transform="translate(-35.8106 -13.0684) matrix(1 0 0 2.07157 0 -4.58299)">
   <path id="imagebot_16" d="M196.83,99.453C187.47,99.453 177.3,109.86 177.7,116.44C178.11,123.01 194.39,150.41 198.06,150.41C201.72,150.41 215.96,123.56 215.56,115.89C215.15,108.22 202.94,98.905 196.83,99.453z" fill="#010101" fill-opacity="0.3137"/>
   <path id="imagebot_14" d="M194.69,88.759C185.33,88.759 175.16,98.141 175.56,104.06C175.97,109.99 192.25,134.68 195.92,134.68C199.58,134.68 213.83,110.48 213.42,103.57C213.01,96.659 200.8,88.266 194.69,88.759z" fill="url(#imagebot_15)" stroke-width="5" stroke="#010101"/>
  </g>
  <g transform="translate(-35.8106 -13.0684)" id="imagebot_10" display="none">
   <path id="imagebot_12" d="M201.31,36.735C208,20.521 219.29,18.326 219.29,18.326S213.02,26.784 218.7,24.431C227.51,20.787 255.5,32.204 255.5,32.204S218.41,23.571 201.31,36.735z" fill="#ffffff" stroke-width="5" stroke="#010101" stroke-linejoin="round"/>
   <path id="imagebot_11" d="M185.96,35.223C179.27,19.009 167.98,16.814 167.98,16.814S174.26,25.271 168.57,22.919C159.77,19.276 131.77,30.692 131.77,30.692S168.86,22.058 185.96,35.223z" fill="#ffffff" stroke-width="5" stroke="#010101" stroke-linejoin="round"/>
  </g>
  <g id="imagebot_2" transform="translate(-35.8106 -13.0684) matrix(1 0 0 1 1.25 113.75)">
   <path id="imagebot_9" d="M171.65,31.18C155.9,31.18 143.11,45.968 143.11,64.189S155.9,97.197 171.65,97.197C180.91,97.197 189.12,92.085 194.33,84.175C199.54,92.091 207.78,97.197 217.03,97.197C232.78,97.197 245.57,82.409 245.57,64.189C245.57,45.967 232.78,31.18 217.03,31.18C207.78,31.18 199.54,36.288 194.33,44.203C189.12,36.295 180.9,31.18 171.65,31.18z" fill="#ffffff" stroke-linecap="round" stroke-width="5" stroke="#010101"/>
   <g id="imagebot_6">
    <path id="imagebot_8" d="M192.53,66.423C192.53,70.986 188.83,74.684 184.27,74.684C179.7,74.684 176.01,70.985 176.01,66.423C176.01,61.86 179.7,58.161 184.27,58.161C188.83,58.161 192.53,61.86 192.53,66.423z" fill="#010101" stroke-linecap="round" stroke-width="3.1693" stroke="#010101"/>
    <path id="imagebot_7" d="M183.43,63.529C183.43,64.713 182.47,65.672 181.29,65.672C180.1,65.672 179.14,64.713 179.14,63.529S180.1,61.385 181.29,61.385C182.47,61.385 183.43,62.346 183.43,63.529z" fill="#ffffff"/>
   </g>
   <g id="imagebot_3">
    <path id="imagebot_5" d="M213.45,66.423C213.45,70.986 209.75,74.684 205.19,74.684S196.93,70.985 196.93,66.423C196.93,61.86 200.63,58.161 205.19,58.161S213.45,61.86 213.45,66.423z" fill="#010101" stroke-linecap="round" stroke-width="3.1693" stroke="#010101"/>
    <path id="imagebot_4" d="M204.35,63.529C204.35,64.713 203.39,65.672 202.21,65.672C201.02,65.672 200.07,64.713 200.07,63.529S201.02,61.385 202.21,61.385C203.39,61.386 204.35,62.346 204.35,63.529z" fill="#ffffff"/>
   </g>
  </g>
  <title/>
 </g>
 <metadata>image/svg+xmlOpenclipartCartoon ostrich2009-03-13T18:28:36Cartoon ostrich. Remixed from Lemmling's Cartoon Giraffe and Cartoon Owl.https://openclipart.org/detail/22289/cartoon-ostrich-by-studiofibonacciStudioFibonacciafricanbirdcartoonostrichremix</metadata>
</svg>